<svg xmlns="http://www.w3.org/2000/svg" width="33.004" height="24.429" viewBox="0 0 33.004 24.429">
  <path id="discord" d="M11.745,5.177c-1.118,0-4.489,1.367-5.093,1.64A5.805,5.805,0,0,0,4.613,9.352c-.762,1.408-1.374,3.053-2.368,5.474S1.02,21.914,1.053,23.339s.2,2.536,1.656,3.379a32.463,32.463,0,0,0,4.108,2.253c1.358.53,2.285.911,2.915.381a4.735,4.735,0,0,0,1.044-1.457s.6-.828-.53-1.325-1.689-.845-1.64-1.359.132-.795.414-.728a7.034,7.034,0,0,0,3.5,1.805,23.518,23.518,0,0,0,5.038.464,23.518,23.518,0,0,0,5.038-.464,7.034,7.034,0,0,0,3.5-1.805c.282-.066.364.215.414.728s-.513.862-1.64,1.359-.53,1.325-.53,1.325a4.735,4.735,0,0,0,1.044,1.457c.629.53,1.557.149,2.915-.381A32.46,32.46,0,0,0,32.4,26.717c1.459-.843,1.623-1.954,1.656-3.379s-.2-6.092-1.192-8.513-1.606-4.066-2.368-5.474a5.805,5.805,0,0,0-2.038-2.534c-.6-.273-3.975-1.64-5.093-1.64a1.505,1.505,0,0,0-1.449.779l-.389.862a29.91,29.91,0,0,0-3.952-.5,30.458,30.458,0,0,0-3.987.5l-.389-.862a1.505,1.505,0,0,0-1.449-.779Zm.122,10.336h.041A3.075,3.075,0,0,1,14.859,18.7a3.075,3.075,0,0,1-2.951,3.186A3.075,3.075,0,0,1,8.956,18.7a3.079,3.079,0,0,1,2.91-3.186Zm11.331,0h.041a3.079,3.079,0,0,1,2.91,3.186A3.075,3.075,0,0,1,23.2,21.884,3.075,3.075,0,0,1,20.246,18.7,3.075,3.075,0,0,1,23.2,15.513Z" transform="translate(-1.05 -5.177)" fill="#fff"/>
</svg>
