<svg xmlns="http://www.w3.org/2000/svg" width="39.398" height="39.398" viewBox="0 0 39.398 39.398">
  <g id="Group_1" data-name="Group 1" transform="translate(-266 -618.672)">
    <path id="Path_2" data-name="Path 2" d="M39.4,19.7A19.7,19.7,0,1,0,16.621,39.158V25.393h-5V19.7h5v-4.34c0-4.937,2.941-7.664,7.441-7.664a30.292,30.292,0,0,1,4.41.385v4.848H25.987c-2.447,0-3.21,1.518-3.21,3.076v3.7H28.24l-.873,5.694h-4.59V39.158A19.7,19.7,0,0,0,39.4,19.7Z" transform="translate(266 618.672)" fill="#fff"/>
    <path id="Path_3" data-name="Path 3" d="M317.748,217.7l.873-5.694h-5.463v-3.7c0-1.558.763-3.076,3.21-3.076h2.484v-4.848a30.294,30.294,0,0,0-4.41-.385c-4.5,0-7.441,2.727-7.441,7.664V212h-5V217.7h5v13.765a19.907,19.907,0,0,0,6.156,0V217.7Z" transform="translate(-24.381 426.367)"/>
  </g>
</svg>
