<?xml version="1.0" encoding="UTF-8" standalone="no"?>
<svg
   height="48"
   width="48"
   version="1.1"
   id="svg4"
   sodipodi:docname="list.svg"
   inkscape:version="1.1.1 (3bf5ae0d25, 2021-09-20)"
   xmlns:inkscape="http://www.inkscape.org/namespaces/inkscape"
   xmlns:sodipodi="http://sodipodi.sourceforge.net/DTD/sodipodi-0.dtd"
   xmlns="http://www.w3.org/2000/svg"
   xmlns:svg="http://www.w3.org/2000/svg">
  <defs
     id="defs8" />
  <sodipodi:namedview
     id="namedview6"
     pagecolor="#ffffff"
     bordercolor="#666666"
     borderopacity="1.0"
     inkscape:pageshadow="2"
     inkscape:pageopacity="0.0"
     inkscape:pagecheckerboard="0"
     showgrid="false"
     inkscape:zoom="13.291667"
     inkscape:cx="23.962382"
     inkscape:cy="24"
     inkscape:window-width="1680"
     inkscape:window-height="1032"
     inkscape:window-x="0"
     inkscape:window-y="18"
     inkscape:window-maximized="1"
     inkscape:current-layer="svg4" />
  <path
     d="M15 33.7q.6 0 1.05-.45.45-.45.45-1.05 0-.6-.45-1.05-.45-.45-1.05-.45-.6 0-1.05.45-.45.45-.45 1.05 0 .6.45 1.05.45.45 1.05.45Zm0-8.2q.6 0 1.05-.45.45-.45.45-1.05 0-.6-.45-1.05-.45-.45-1.05-.45-.6 0-1.05.45-.45.45-.45 1.05 0 .6.45 1.05.45.45 1.05.45Zm0-8.2q.6 0 1.05-.45.45-.45.45-1.05 0-.6-.45-1.05-.45-.45-1.05-.45-.6 0-1.05.45-.45.45-.45 1.05 0 .6.45 1.05.45.45 1.05.45Zm6.6 16.4h12.2v-3H21.6Zm0-8.2h12.2v-3H21.6Zm0-8.2h12.2v-3H21.6ZM9 42q-1.2 0-2.1-.9Q6 40.2 6 39V9q0-1.2.9-2.1Q7.8 6 9 6h30q1.2 0 2.1.9.9.9.9 2.1v30q0 1.2-.9 2.1-.9.9-2.1.9Zm0-3h30V9H9v30ZM9 9v30V9Z"
     id="path2"
     style="fill:#f9f9f9" />
</svg>
