<svg id="youtube" xmlns="http://www.w3.org/2000/svg" width="36.126" height="25.385" viewBox="0 0 36.126 25.385">
  <path id="youtube-2" data-name="youtube" d="M37.108,13.2a13.949,13.949,0,0,0-1.493-6.777,4.792,4.792,0,0,0-2.823-1.641,128.6,128.6,0,0,0-13.735-.509A128.732,128.732,0,0,0,5.371,4.77a4.71,4.71,0,0,0-2.4,1.214C1.5,7.346,1.334,9.676,1.17,11.646a79.243,79.243,0,0,0,0,10.634,15.672,15.672,0,0,0,.492,3.282,5.153,5.153,0,0,0,1.165,2.232,4.693,4.693,0,0,0,2.445,1.28,74.141,74.141,0,0,0,10.667.542c5.744.082,10.782,0,16.739-.459a4.726,4.726,0,0,0,2.511-1.28,4.086,4.086,0,0,0,1-1.641,17.362,17.362,0,0,0,.853-5.58C37.108,19.736,37.108,14.189,37.108,13.2ZM15.348,21.64V11.482l9.715,5.1C22.339,18.1,18.745,19.8,15.348,21.64Z" transform="translate(-0.991 -4.258)" fill="#fff"/>
</svg>
